<?xml version="1.0" encoding="iso-8859-1"?>
<!-- Uploaded to: SVG Repo, www.svgrepo.com, Generator: SVG Repo Mixer Tools -->
<svg fill="#000000" height="800px" width="800px" version="1.1" id="Layer_1" xmlns="http://www.w3.org/2000/svg" xmlns:xlink="http://www.w3.org/1999/xlink" 
	 viewBox="0 0 511.999 511.999" xml:space="preserve">
<g>
	<g>
		<path d="M474.606,75.127c-55.758-55.758-136.38-44.461-180.839,0L256,112.893l-37.768-37.766
			c-44.461-44.461-125.082-55.758-180.839,0c-49.858,49.858-49.858,130.982,0,180.839L256,474.573l218.607-218.607
			C524.464,206.11,524.464,124.985,474.606,75.127z M443.318,224.678L255.999,411.997L68.68,224.678
			c-32.605-32.605-32.605-85.658,0-118.263c30.775-30.775,83.667-34.596,118.263,0l69.056,69.056l69.056-69.056
			c34.596-34.596,87.488-30.775,118.263,0C475.923,139.02,475.923,192.073,443.318,224.678z"/>
	</g>
</g>
</svg>